<svg xmlns="http://www.w3.org/2000/svg" width="256" height="256" viewBox="0 0 256 256">
  <defs>
    <linearGradient id="g" x1="0" y1="0" x2="1" y2="1">
      <stop offset="0" stop-color="#22c55e"/>
      <stop offset="1" stop-color="#0ea5e9"/>
    </linearGradient>
  </defs>
  <rect width="256" height="256" rx="58" fill="url(#g)"/>
  <path d="M64 78h82c18 0 32 14 32 32v17h13c7 0 13 6 13 13v32h-22a27 27 0 0 1-54 0H94a27 27 0 0 1-54 0H28v-49c0-10 8-18 18-18h18V78Zm18 25v24h70v-17c0-4-3-7-7-7H82Zm-15 83a14 14 0 1 0 0-28 14 14 0 0 0 0 28Zm88 0a14 14 0 1 0 0-28 14 14 0 0 0 0 28Z" fill="#061008"/>
</svg>
